# xmcd CD database file
#
# Track frame offsets:
#	150
#	22890
#	65360
#	79945
#	96005
#	122707
#	147125
#	171395
#	194215
#	216265
#	249990
#
# Disc length: 3587 seconds
#
# Revision: 0
# Processed by: cddbd v1.5.1PL0 Copyright (c) Steve Scherf et al.
# Submitted via: CDex 1.51
#
DISCID=9c0e010b
DTITLE=Antonio Farao - Far Out
DYEAR=2003
DGENRE=Jazz
TTITLE0=Seven Steps to Heaven
TTITLE1=Andalusia
TTITLE2=More
TTITLE3=Cat Steps
TTITLE4=Walking with My Soul
TTITLE5=Far Out
TTITLE6=Fields
TTITLE7=Simple
TTITLE8=For My Friend
TTITLE9=One Way
TTITLE10=Fields (Piano Solo)
EXTD=YEAR: 2003
EXTT0=
EXTT1=
EXTT2=
EXTT3=
EXTT4=
EXTT5=
EXTT6=
EXTT7=
EXTT8=
EXTT9=
EXTT10=
PLAYORDER=
